<svg aria-hidden="true" style="position:absolute;width:0;height:0" xmlns="http://www.w3.org/2000/svg" overflow="hidden"><defs><symbol id="moon" viewBox="0 0 32 32"><path fill="currentColor" d="M17.701 32a15.97 15.97 0 0012.429-5.925c.442-.544-.04-1.339-.723-1.209-7.763 1.478-14.891-4.474-14.891-12.31 0-4.514 2.416-8.665 6.344-10.9.605-.345.453-1.262-.235-1.389-.879-.17-1.89-.267-2.923-.268-8.832 0-16 7.157-16 16 0 8.832 7.157 16 16 16z"/></symbol><symbol id="sun" viewBox="0 0 32 32"><path fill="currentColor" d="M16 10c-3.306 0-6 2.694-6 6s2.694 6 6 6 6-2.694 6-6-2.694-6-6-6zm15.4 5.031l-5.919-2.956L27.575 5.8c.281-.85-.525-1.656-1.369-1.369l-6.275 2.094L16.969.6c-.4-.8-1.537-.8-1.938 0l-2.956 5.919-6.281-2.094c-.85-.281-1.656.525-1.369 1.369l2.094 6.275L.6 15.032c-.8.4-.8 1.538 0 1.938l5.919 2.956-2.094 6.281c-.281.85.525 1.656 1.369 1.369l6.275-2.094 2.956 5.919c.4.8 1.538.8 1.938 0l2.956-5.919 6.275 2.094c.85.281 1.656-.525 1.369-1.369l-2.094-6.275 5.919-2.956c.813-.406.813-1.544.012-1.944zm-9.744 6.625c-3.119 3.119-8.194 3.119-11.313 0s-3.119-8.194 0-11.313c3.119-3.119 8.194-3.119 11.313 0s3.119 8.194 0 11.313z"/></symbol>
<symbol id="icon-cart" viewBox="0 0 32 32">
<path fill="currentColor" d="M9.333 24c-1.473 0-2.653 1.193-2.653 2.667s1.18 2.667 2.653 2.667 2.667-1.193 2.667-2.667-1.193-2.667-2.667-2.667zM1.333 2.667v2.667h2.667l4.793 10.113-1.8 3.267c-0.207 0.387-0.327 0.82-0.327 1.287 0 1.473 1.193 2.667 2.667 2.667h16v-2.667h-15.433c-0.187 0-0.333-0.147-0.333-0.333 0-0.060 0.013-0.113 0.040-0.16l1.193-2.173h9.933c1 0 1.873-0.553 2.333-1.373l4.767-8.653c0.107-0.187 0.167-0.407 0.167-0.64 0-0.74-0.6-1.333-1.333-1.333h-19.713l-1.267-2.667h-4.353zM22.667 24c-1.473 0-2.653 1.193-2.653 2.667s1.18 2.667 2.653 2.667 2.667-1.193 2.667-2.667-1.193-2.667-2.667-2.667z"></path>
</symbol></defs></svg>